<svg
  width="32"
  height="34"
  viewBox="0 0 32 34"
  fill="none"
  xmlns="http://www.w3.org/2000/svg"
>
  <path
    d="M15.0601 0.587295L7.86476 2.13795C7.60683 2.19295 7.37555 2.3347 7.20947 2.53956C7.04339 2.74441 6.95254 3.00001 6.95207 3.26373V15.6468C6.42708 15.4645 5.87516 15.3717 5.3194 15.3724C2.80633 15.3724 0.768982 17.2177 0.768982 19.4941C0.768982 21.7704 2.80633 23.6158 5.31947 23.6158C7.04656 23.6158 8.77399 22.677 9.49197 21.0764C10.116 19.6854 9.86983 18.0132 9.86983 16.5213V6.62223L19.779 4.32072C19.7449 1.87246 17.4654 0.0689939 15.0601 0.587361L15.0601 0.587295Z"
    fill="#FACD66"
  />
  <path
    d="M15.0565 11.998V25.2556C15.0563 25.2872 15.0488 25.3184 15.0345 25.3466C15.0202 25.3748 14.9996 25.3993 14.9742 25.4182C14.9488 25.437 14.9194 25.4497 14.8882 25.4552C14.8571 25.4607 14.8251 25.4589 14.7948 25.4499C14.349 25.3225 13.8875 25.2581 13.4238 25.2585C10.9107 25.2585 8.87341 27.1039 8.87341 29.3802C8.87341 31.6566 10.9107 33.502 13.4238 33.502C15.1509 33.502 16.8784 32.5632 17.5964 30.9626C18.2204 29.5716 17.9743 27.8993 17.9743 26.4075V15.6245C17.9744 15.5481 18.0004 15.474 18.048 15.4143C18.0957 15.3545 18.1621 15.3127 18.2366 15.2956L27.8834 13.055C27.9331 13.0433 27.9848 13.043 28.0346 13.0541C28.0844 13.0651 28.1311 13.0873 28.1712 13.1189C28.2112 13.1506 28.2436 13.1908 28.266 13.2367C28.2883 13.2826 28.3 13.3329 28.3002 13.384V24.2421C28.3 24.2737 28.2925 24.3048 28.2782 24.3331C28.2639 24.3613 28.2433 24.3858 28.2179 24.4046C28.1925 24.4235 28.1631 24.4362 28.1319 24.4417C28.1008 24.4472 28.0688 24.4454 28.0385 24.4364C27.5926 24.309 27.1312 24.2446 26.6675 24.245C24.1544 24.245 22.1171 26.0904 22.1171 28.3667C22.1171 30.6431 24.1544 32.4884 26.6674 32.4884C28.1883 32.4884 29.7005 31.7011 30.5534 30.413C31.3799 29.1648 31.2183 27.8537 31.2179 26.4434C31.2171 23.9282 31.2171 21.413 31.2179 18.8979V8.84266C31.2174 8.69091 31.1829 8.54119 31.1171 8.40447C31.0512 8.26776 30.9556 8.14751 30.8372 8.05253C30.7189 7.95755 30.5808 7.89026 30.433 7.85557C30.2853 7.82089 30.1317 7.81969 29.9834 7.85208L15.9692 10.8722C15.7113 10.9272 15.48 11.069 15.3139 11.2738C15.1478 11.4787 15.057 11.7343 15.0565 11.998Z"
    fill="#A4C7C6"
  />
</svg>
