<svg width="20" height="20" viewBox="0 0 20 20" fill="none" xmlns="http://www.w3.org/2000/svg">
<path d="M14.5834 3.35416H13.6667V1.98832C13.6667 1.22749 13.0434 0.604156 12.2825 0.604156H7.71754C6.95671 0.604156 6.33337 1.22749 6.33337 1.98832V3.35416H5.41671C4.40837 3.35416 3.58337 4.17916 3.58337 5.18749V5.30666C3.87671 5.22416 4.17921 5.18749 4.50004 5.18749H15.5C15.8209 5.18749 16.1234 5.22416 16.4167 5.30666V5.18749C16.4167 4.17916 15.5917 3.35416 14.5834 3.35416Z" fill="#EFEEE0" fill-opacity="0.25"/>
<path d="M16.4167 6.68167C16.1234 6.59917 15.8209 6.5625 15.5 6.5625H4.50004C4.17921 6.5625 3.87671 6.59917 3.58337 6.68167C2.00671 7.09417 0.833374 8.53333 0.833374 10.2292V15.7292C0.833374 17.7458 2.48337 19.3958 4.50004 19.3958H15.5C17.5167 19.3958 19.1667 17.7458 19.1667 15.7292V10.2292C19.1667 8.53333 17.9934 7.09417 16.4167 6.68167ZM13.6667 11.1733V15.0417C13.6667 16.0867 12.8142 16.9392 11.7692 16.9392C10.7242 16.9392 9.87171 16.0867 9.87171 15.0417C9.87171 13.9967 10.7242 13.1442 11.7692 13.1442C11.9525 13.1442 12.1267 13.1808 12.2917 13.2267V12.0717L9.22087 12.9058V15.8483C9.22087 15.8575 9.22087 15.8667 9.21171 15.8758C9.20254 16.9117 8.35004 17.755 7.31421 17.755C6.26921 17.755 5.41671 16.9025 5.41671 15.8483C5.41671 14.7942 6.26921 13.9508 7.31421 13.9508C7.49754 13.9508 7.67171 13.9875 7.84587 14.0333V12.3833V10.9625C7.84587 10.1742 8.34087 9.5325 9.09254 9.33083L11.5217 8.66167C12.3009 8.45083 12.7959 8.6525 13.0709 8.86333C13.3459 9.07417 13.6667 9.48667 13.6667 10.3025V11.1733Z" fill="#EFEEE0" fill-opacity="0.25"/>
</svg>
