<svg width="14" height="20" viewBox="0 0 14 20" fill="none" xmlns="http://www.w3.org/2000/svg">
<path d="M7.00004 0.833328C4.59837 0.833328 2.64587 2.78583 2.64587 5.18749C2.64587 7.54333 4.48837 9.44999 6.89004 9.53249C6.96337 9.52333 7.03671 9.52333 7.09171 9.53249C7.11004 9.53249 7.11921 9.53249 7.13754 9.53249C7.14671 9.53249 7.14671 9.53249 7.15587 9.53249C9.50254 9.44999 11.345 7.54333 11.3542 5.18749C11.3542 2.78583 9.40171 0.833328 7.00004 0.833328Z" fill="#EFEEE0"/>
<path d="M11.6566 11.9708C9.09913 10.2658 4.9283 10.2658 2.35246 11.9708C1.1883 12.75 0.546631 13.8042 0.546631 14.9317C0.546631 16.0592 1.1883 17.1042 2.3433 17.8742C3.62663 18.7358 5.3133 19.1667 6.99996 19.1667C8.68663 19.1667 10.3733 18.7358 11.6566 17.8742C12.8116 17.095 13.4533 16.05 13.4533 14.9133C13.4441 13.7858 12.8116 12.7408 11.6566 11.9708Z" fill="#EFEEE0"/>
</svg>
