<svg width="16" height="14" viewBox="0 0 16 14" fill="none" xmlns="http://www.w3.org/2000/svg">
<path d="M2.60666 10.226C2.48 10.226 2.35333 10.1793 2.25333 10.0793C1.34 9.15932 0.833328 7.94599 0.833328 6.65932C0.833328 3.98599 2.99999 1.81266 5.66666 1.81266L9.71333 1.82599L8.98666 1.13266C8.78666 0.939324 8.77999 0.625991 8.97333 0.425991C9.16666 0.22599 9.48 0.219324 9.68 0.412657L11.3067 1.97266C11.4533 2.11266 11.5 2.33266 11.4267 2.51932C11.3533 2.70599 11.1667 2.83266 10.96 2.83266L5.66666 2.81932C3.55333 2.81932 1.83333 4.54599 1.83333 6.66599C1.83333 7.68599 2.23333 8.65266 2.96 9.37932C3.15333 9.57266 3.15333 9.89266 2.96 10.086C2.86 10.1793 2.73333 10.226 2.60666 10.226Z" fill="white"/>
<path d="M6.66666 13.2728C6.53999 13.2728 6.41999 13.2261 6.31999 13.1328L4.69333 11.5728C4.54666 11.4328 4.49999 11.2128 4.57333 11.0261C4.65333 10.8395 4.83999 10.7395 5.03999 10.7128L10.34 10.7261C12.4533 10.7261 14.1733 8.99945 14.1733 6.87945C14.1733 5.85945 13.7733 4.89279 13.0467 4.16612C12.8533 3.97279 12.8533 3.65279 13.0467 3.45945C13.24 3.26612 13.56 3.26612 13.7533 3.45945C14.6667 4.37945 15.1733 5.59279 15.1733 6.87945C15.1733 9.55279 13.0067 11.7261 10.34 11.7261L6.29333 11.7128L7.01999 12.4061C7.21999 12.5995 7.22666 12.9128 7.03333 13.1128C6.92666 13.2195 6.79999 13.2728 6.66666 13.2728Z" fill="white"/>
<path d="M8.16667 9.05267C7.89334 9.05267 7.66667 8.826 7.66667 8.55267V6.29267L7.54 6.43267C7.35334 6.63934 7.04 6.65267 6.83334 6.47267C6.62667 6.29267 6.61334 5.97267 6.79334 5.766L7.79334 4.65267C7.93334 4.49934 8.15334 4.446 8.34667 4.51934C8.54 4.59934 8.66667 4.77934 8.66667 4.99267V8.55934C8.66667 8.83267 8.44 9.05267 8.16667 9.05267Z" fill="white"/>
</svg>
