<svg width="14" height="13" viewBox="0 0 14 13" fill="none" xmlns="http://www.w3.org/2000/svg">
<path d="M13.5 10.7593C13.5 10.746 13.4933 10.7326 13.4933 10.7193C13.4867 10.666 13.48 10.6126 13.46 10.566C13.4333 10.506 13.4 10.4593 13.36 10.4126C13.36 10.4126 13.36 10.406 13.3533 10.406C13.3067 10.3593 13.2533 10.326 13.1933 10.2993C13.1333 10.2726 13.0667 10.2593 13 10.2593L9.88666 10.2726C9.88666 10.2726 9.88666 10.2726 9.88 10.2726C9.48 10.2726 9.09333 10.086 8.85333 9.76597L8.04 8.7193C7.87333 8.4993 7.56 8.4593 7.34 8.63263C7.12 8.80597 7.08 9.11263 7.25333 9.33263L8.06666 10.3793C8.5 10.9393 9.18 11.2726 9.88666 11.2726H9.89333L11.7933 11.266L11.32 11.7393C11.1267 11.9326 11.1267 12.2526 11.32 12.446C11.42 12.546 11.5467 12.5926 11.6733 12.5926C11.8 12.5926 11.9267 12.546 12.0267 12.446L13.36 11.1126C13.4067 11.066 13.44 11.0126 13.4667 10.9526C13.4867 10.886 13.5 10.8193 13.5 10.7593Z" fill="white"/>
<path d="M4.61333 3.23263C4.18 2.63263 3.48667 2.2793 2.74667 2.2793C2.74 2.2793 2.74 2.2793 2.73333 2.2793L1 2.28596C0.726667 2.28596 0.5 2.51263 0.5 2.78596C0.5 3.0593 0.726667 3.28596 1 3.28596L2.74 3.2793H2.74667C3.16667 3.2793 3.56 3.4793 3.8 3.8193L4.52 4.8193C4.62 4.95263 4.77333 5.02596 4.92667 5.02596C5.02667 5.02596 5.13333 4.99263 5.22 4.93263C5.44667 4.76596 5.49333 4.45263 5.33333 4.23263L4.61333 3.23263Z" fill="white"/>
<path d="M13.4933 2.82594C13.4933 2.8126 13.5 2.79927 13.5 2.7926C13.5 2.72594 13.4867 2.65927 13.46 2.59927C13.4333 2.53927 13.4 2.48594 13.3533 2.43927L12.02 1.10594C11.8267 0.912604 11.5067 0.912604 11.3133 1.10594C11.12 1.29927 11.12 1.61927 11.3133 1.8126L11.7867 2.28594L9.96667 2.27927C9.96 2.27927 9.96 2.27927 9.95333 2.27927C9.18667 2.27927 8.46667 2.65927 8.04 3.30594L3.78 9.6926C3.54 10.0526 3.13333 10.2726 2.7 10.2726H2.69333L1 10.2593C0.726667 10.2593 0.5 10.4793 0.5 10.7593C0.5 11.0326 0.72 11.2593 1 11.2593L2.7 11.2659C2.70667 11.2659 2.70667 11.2659 2.71333 11.2659C3.48667 11.2659 4.2 10.8859 4.62667 10.2393L8.88667 3.8526C9.12667 3.4926 9.53333 3.2726 9.96667 3.2726H9.97333L13 3.28594C13.0667 3.28594 13.1267 3.2726 13.1933 3.24594C13.2533 3.21927 13.3067 3.18594 13.3533 3.13927C13.3533 3.13927 13.3533 3.1326 13.36 3.1326C13.4 3.08594 13.44 3.03927 13.46 2.97927C13.48 2.9326 13.4867 2.87927 13.4933 2.82594Z" fill="white"/>
</svg>
