<svg width="18" height="14" viewBox="0 0 18 14" fill="none" xmlns="http://www.w3.org/2000/svg">
<path d="M13.5 10.5625C13.38 10.5625 13.2675 10.525 13.1625 10.45C12.915 10.2625 12.8625 9.90996 13.05 9.66246C14.2275 8.09496 14.2275 5.90496 13.05 4.33746C12.8625 4.08996 12.915 3.73746 13.1625 3.54996C13.41 3.36246 13.7625 3.41496 13.95 3.66246C15.42 5.62746 15.42 8.37246 13.95 10.3375C13.8375 10.4875 13.6725 10.5625 13.5 10.5625Z" fill="#EFEEE0"/>
<path d="M14.8725 12.4375C14.7525 12.4375 14.64 12.4 14.535 12.325C14.2875 12.1375 14.235 11.785 14.4225 11.5375C16.425 8.86746 16.425 5.13246 14.4225 2.46246C14.235 2.21496 14.2875 1.86246 14.535 1.67496C14.7825 1.48746 15.135 1.53996 15.3225 1.78746C17.625 4.85496 17.625 9.14496 15.3225 12.2125C15.2175 12.3625 15.045 12.4375 14.8725 12.4375Z" fill="#EFEEE0"/>
<path d="M10.515 0.835037C9.675 0.370037 8.6025 0.490037 7.5075 1.17254L5.3175 2.54504C5.1675 2.63504 4.995 2.68754 4.8225 2.68754H4.125H3.75C1.935 2.68754 0.9375 3.68504 0.9375 5.50004V8.50004C0.9375 10.315 1.935 11.3125 3.75 11.3125H4.125H4.8225C4.995 11.3125 5.1675 11.365 5.3175 11.455L7.5075 12.8275C8.1675 13.24 8.8125 13.4425 9.4125 13.4425C9.8025 13.4425 10.1775 13.3525 10.515 13.165C11.3475 12.7 11.8125 11.7325 11.8125 10.4425V3.55754C11.8125 2.26754 11.3475 1.30004 10.515 0.835037Z" fill="#EFEEE0"/>
</svg>
